# xmcd CD database file
#
# Track frame offsets:
#	150
#	18299
#	37736
#	54093
#	73710
#	87059
#	106277
#	121176
#	141224
#
# Disc length: 2107 seconds
#
# Revision: 0
# Processed by: cddbd v1.5.1PL0 Copyright (c) Steve Scherf et al.
# Submitted via: CDex 1.51
#
DISCID=65083909
DTITLE=Ubaldo Gonzalez Lanuza - Jazz, Rhythm and Blues
DYEAR=2004
DGENRE=Jazz
TTITLE0=Commi' Back Home To Stay
TTITLE1=Alone Together
TTITLE2=Taboo
TTITLE3=On The Sunny Side of the Street
TTITLE4=Summit Ridge Drive
TTITLE5=Alone Together
TTITLE6=Nagasaki
TTITLE7=Night Train
TTITLE8=Killer Diller
EXTD=YEAR: 2004
EXTT0=
EXTT1=
EXTT2=
EXTT3=
EXTT4=
EXTT5=
EXTT6=
EXTT7=
EXTT8=
PLAYORDER=
